<?xml version="1.0" encoding="UTF-8" standalone="no"?>
<!-- Created with Inkscape (http://www.inkscape.org/) -->

<svg
   width="55.581528mm"
   height="55.581528mm"
   viewBox="0 0 55.581528 55.581528"
   version="1.1"
   id="svg5"
   xml:space="preserve"
   inkscape:version="1.2 (dc2aeda, 2022-05-15)"
   sodipodi:docname="monuments_special.svg"
   xmlns:inkscape="http://www.inkscape.org/namespaces/inkscape"
   xmlns:sodipodi="http://sodipodi.sourceforge.net/DTD/sodipodi-0.dtd"
   xmlns="http://www.w3.org/2000/svg"
   xmlns:svg="http://www.w3.org/2000/svg"><sodipodi:namedview
     id="namedview7"
     pagecolor="#ffffff"
     bordercolor="#000000"
     borderopacity="0.25"
     inkscape:showpageshadow="2"
     inkscape:pageopacity="0.0"
     inkscape:pagecheckerboard="0"
     inkscape:deskcolor="#d1d1d1"
     inkscape:document-units="mm"
     showgrid="false"
     inkscape:zoom="0.37511246"
     inkscape:cx="1464.894"
     inkscape:cy="313.2394"
     inkscape:window-width="3440"
     inkscape:window-height="1323"
     inkscape:window-x="1512"
     inkscape:window-y="25"
     inkscape:window-maximized="1"
     inkscape:current-layer="layer1" /><defs
     id="defs2" /><g
     inkscape:label="Layer 1"
     inkscape:groupmode="layer"
     id="layer1"
     transform="translate(0.23788296,-177.50485)"><g
       id="g4844"
       transform="translate(-147.57453,65.453092)"
       inkscape:export-filename="../../Pictures/icons/burial_mound_special.png"
       inkscape:export-xdpi="91.39727"
       inkscape:export-ydpi="91.39727"><ellipse
         style="fill:#f09937;fill-opacity:1;stroke-width:0.284353"
         id="path4748"
         cx="175.12741"
         cy="139.84251"
         rx="27.790764"
         ry="27.790766" /><path
         style="fill:#000000;stroke-width:0.284353"
         d="m 170.42744,162.51712 c -9.86266,-2.40004 -16.64748,-9.49537 -18.24131,-19.07611 -1.71536,-10.31126 4.07894,-20.79729 13.74617,-24.87664 3.37354,-1.42356 4.94901,-1.71178 9.36368,-1.71303 4.91385,-10e-4 7.07348,0.5148 10.98611,2.62595 4.46729,2.41042 7.86147,5.95905 9.99416,10.44889 1.68127,3.5395 2.09197,5.47951 2.09197,9.88181 0,4.4023 -0.4107,6.34231 -2.09197,9.8818 -2.776,5.84418 -8.16919,10.45803 -14.45327,12.3647 -2.58649,0.78478 -9.0015,1.0452 -11.39554,0.46263 z"
         id="path4587" /></g></g></svg>
