<?xml version="1.0" encoding="UTF-8" standalone="no"?>
<!-- Created with Inkscape (http://www.inkscape.org/) -->

<svg
   width="55.581528mm"
   height="55.581528mm"
   viewBox="0 0 55.581528 55.581528"
   version="1.1"
   id="svg5"
   xml:space="preserve"
   inkscape:version="1.2 (dc2aeda, 2022-05-15)"
   sodipodi:docname="monuments_special.svg"
   xmlns:inkscape="http://www.inkscape.org/namespaces/inkscape"
   xmlns:sodipodi="http://sodipodi.sourceforge.net/DTD/sodipodi-0.dtd"
   xmlns="http://www.w3.org/2000/svg"
   xmlns:svg="http://www.w3.org/2000/svg"><sodipodi:namedview
     id="namedview7"
     pagecolor="#ffffff"
     bordercolor="#000000"
     borderopacity="0.25"
     inkscape:showpageshadow="2"
     inkscape:pageopacity="0.0"
     inkscape:pagecheckerboard="0"
     inkscape:deskcolor="#d1d1d1"
     inkscape:document-units="mm"
     showgrid="false"
     inkscape:zoom="0.37511246"
     inkscape:cx="1464.894"
     inkscape:cy="313.2394"
     inkscape:window-width="3440"
     inkscape:window-height="1323"
     inkscape:window-x="1512"
     inkscape:window-y="25"
     inkscape:window-maximized="1"
     inkscape:current-layer="layer1" /><defs
     id="defs2" /><g
     inkscape:label="Layer 1"
     inkscape:groupmode="layer"
     id="layer1"
     transform="translate(166.47498,198.97491)"><g
       id="g4573"
       transform="translate(-218.86498,-210.96782)"
       inkscape:export-filename="IconPack/cave_special.svg"
       inkscape:export-xdpi="91.397263"
       inkscape:export-ydpi="91.397263"><rect
         style="fill:#f09937;fill-opacity:1;stroke-width:0.264583"
         id="rect363"
         width="55.581532"
         height="55.581532"
         x="52.390003"
         y="11.992895" /><path
         style="fill:#000000;stroke-width:0.264583"
         d="m 64.456095,63.944638 c -0.376427,-0.98095 -0.483295,-5.379 -0.170294,-7.008315 0.426594,-2.220627 2.079463,-5.579994 3.582366,-7.280971 1.617431,-1.830599 4.338147,-3.599973 6.813086,-4.430784 1.627899,-0.546467 2.52643,-0.677793 4.62012,-0.675264 4.616963,0.0056 7.725143,1.282592 10.935441,4.492892 3.740348,3.740346 5.045821,7.954079 4.324588,13.958652 l -0.166846,1.38906 H 79.510759 c -13.704953,0 -14.897331,-0.0353 -15.054664,-0.44527 z M 103.86335,48.309364 C 100.87136,41.58418 94.340017,35.985981 87.006415,33.860786 c -6.569239,-1.903691 -13.116966,-1.341532 -19.39336,1.665029 -4.247043,2.034446 -7.937036,5.231359 -10.695039,9.265898 l -1.343503,1.965341 v -15.78982 -15.78982 h 24.60625 24.606267 v 17.4625 c 0,9.604375 -0.0298,17.459298 -0.0662,17.455387 -0.0364,-0.0039 -0.42227,-0.807585 -0.85753,-1.785937 z"
         id="path248" /></g></g></svg>
