<?xml version="1.0" encoding="UTF-8" standalone="no"?>
<!-- Created with Inkscape (http://www.inkscape.org/) -->

<svg
   width="55.618073mm"
   height="55.573639mm"
   viewBox="0 0 55.618073 55.573639"
   version="1.1"
   id="svg5"
   xml:space="preserve"
   inkscape:version="1.2 (dc2aeda, 2022-05-15)"
   sodipodi:docname="monuments_special.svg"
   xmlns:inkscape="http://www.inkscape.org/namespaces/inkscape"
   xmlns:sodipodi="http://sodipodi.sourceforge.net/DTD/sodipodi-0.dtd"
   xmlns="http://www.w3.org/2000/svg"
   xmlns:svg="http://www.w3.org/2000/svg"><sodipodi:namedview
     id="namedview7"
     pagecolor="#ffffff"
     bordercolor="#000000"
     borderopacity="0.25"
     inkscape:showpageshadow="2"
     inkscape:pageopacity="0.0"
     inkscape:pagecheckerboard="0"
     inkscape:deskcolor="#d1d1d1"
     inkscape:document-units="mm"
     showgrid="false"
     inkscape:zoom="0.37511246"
     inkscape:cx="1464.894"
     inkscape:cy="313.2394"
     inkscape:window-width="3440"
     inkscape:window-height="1323"
     inkscape:window-x="1512"
     inkscape:window-y="25"
     inkscape:window-maximized="1"
     inkscape:current-layer="layer1" /><defs
     id="defs2" /><g
     inkscape:label="Layer 1"
     inkscape:groupmode="layer"
     id="layer1"
     transform="translate(279.34244,-263.38491)"><g
       id="g7627"
       transform="translate(-343.61352,29.750088)"
       inkscape:export-filename="../../Pictures/icons/christian_church_special.svg"
       inkscape:export-xdpi="91.337212"
       inkscape:export-ydpi="91.337212"><path
         style="fill:#f09937;fill-opacity:1;stroke:none;stroke-width:0.314223;stroke-opacity:1"
         d="m 78.131661,261.47834 c 7.62333,-15.25156 13.90782,-27.78107 13.96555,-27.84335 0.10222,-0.11027 27.791929,55.10158 27.791929,55.41566 0,0.0867 -12.51407,0.15781 -27.809059,0.15781 h -27.80902 z"
         id="path4974-8-7-5-63" /><path
         style="fill:#000000;stroke-width:0.244918"
         d="m 73.906653,278.14292 3.538741,-7.13113 h 5.609782 5.609782 v 7.13113 7.13113 h -9.148523 -9.148524 z m 19.637084,0 v -7.13113 h 6.322084 c 3.869669,0 6.353629,-0.0926 6.403399,-0.23873 0.0447,-0.1313 1.73444,3.0777 3.75492,7.13113 l 3.67361,7.36986 H 103.62074 93.543737 Z m -7.535713,-24.40568 c 3.235059,-6.5256 5.918461,-11.90453 5.963116,-11.95319 0.07928,-0.0864 11.81803,23.44863 11.81803,23.69396 0,0.0682 -2.30522,0.12396 -5.122716,0.12396 h -5.122717 v -4.67212 -4.67212 h -2.43939 -2.439389 v 4.67212 4.67212 H 84.395529 80.1261 Z"
         id="path7623" /></g></g></svg>
