<?xml version="1.0" encoding="UTF-8" standalone="no"?>
<!-- Created with Inkscape (http://www.inkscape.org/) -->

<svg
   width="55.640434mm"
   height="55.697834mm"
   viewBox="0 0 55.640435 55.697834"
   version="1.1"
   id="svg5"
   xml:space="preserve"
   inkscape:version="1.2 (dc2aeda, 2022-05-15)"
   sodipodi:docname="field_of_burial_mounds_special.svg"
   xmlns:inkscape="http://www.inkscape.org/namespaces/inkscape"
   xmlns:sodipodi="http://sodipodi.sourceforge.net/DTD/sodipodi-0.dtd"
   xmlns="http://www.w3.org/2000/svg"
   xmlns:svg="http://www.w3.org/2000/svg"><sodipodi:namedview
     id="namedview7"
     pagecolor="#ffffff"
     bordercolor="#000000"
     borderopacity="0.25"
     inkscape:showpageshadow="2"
     inkscape:pageopacity="0.0"
     inkscape:pagecheckerboard="0"
     inkscape:deskcolor="#d1d1d1"
     inkscape:document-units="mm"
     showgrid="false"
     inkscape:zoom="0.37511246"
     inkscape:cx="1464.894"
     inkscape:cy="313.2394"
     inkscape:window-width="3440"
     inkscape:window-height="1323"
     inkscape:window-x="1512"
     inkscape:window-y="25"
     inkscape:window-maximized="1"
     inkscape:current-layer="layer1" /><defs
     id="defs2" /><g
     inkscape:label="Layer 1"
     inkscape:groupmode="layer"
     id="layer1"
     transform="translate(-144.55907,-134.04862)"><ellipse
       style="fill:#ffffff;fill-opacity:1;stroke-width:0.284353"
       id="path4748-6-6-5-2"
       cx="172.37929"
       cy="161.89754"
       rx="27.790764"
       ry="27.790766" /><path
       style="fill:#da3b26;fill-opacity:1;stroke-width:0.340914"
       d="m 167.51239,189.3931 c -12.95553,-2.61536 -22.03593,-12.89262 -22.89441,-25.91203 -0.8602,-13.04559 7.78086,-24.99724 20.72509,-28.66534 3.60933,-1.02281 10.45368,-1.02281 14.06301,0 16.62121,4.71007 25.22792,22.48152 18.49003,38.17886 -3.25863,7.59168 -10.26875,13.6354 -18.39001,15.85482 -3.41461,0.93316 -8.84502,1.17933 -11.99371,0.54369 z m 25.75922,-11.24305 c 0,-0.34568 -20.73277,-43.97434 -20.89704,-43.97434 -0.16427,0 -20.89703,43.62866 -20.89703,43.97434 0,0.096 9.40366,0.17446 20.89703,0.17446 11.49336,0 20.89704,-0.0784 20.89704,-0.17446 z"
       id="path4892-9-0" /></g></svg>
