<?xml version="1.0" encoding="UTF-8" standalone="no"?>
<!-- Created with Inkscape (http://www.inkscape.org/) -->

<svg
   width="55.581528mm"
   height="55.581528mm"
   viewBox="0 0 55.581528 55.581528"
   version="1.1"
   id="svg5"
   xml:space="preserve"
   inkscape:version="1.2 (dc2aeda, 2022-05-15)"
   sodipodi:docname="monuments_special.svg"
   xmlns:inkscape="http://www.inkscape.org/namespaces/inkscape"
   xmlns:sodipodi="http://sodipodi.sourceforge.net/DTD/sodipodi-0.dtd"
   xmlns="http://www.w3.org/2000/svg"
   xmlns:svg="http://www.w3.org/2000/svg"><sodipodi:namedview
     id="namedview7"
     pagecolor="#ffffff"
     bordercolor="#000000"
     borderopacity="0.25"
     inkscape:showpageshadow="2"
     inkscape:pageopacity="0.0"
     inkscape:pagecheckerboard="0"
     inkscape:deskcolor="#d1d1d1"
     inkscape:document-units="mm"
     showgrid="false"
     inkscape:zoom="0.37511246"
     inkscape:cx="1464.894"
     inkscape:cy="313.2394"
     inkscape:window-width="3440"
     inkscape:window-height="1323"
     inkscape:window-x="1512"
     inkscape:window-y="25"
     inkscape:window-maximized="1"
     inkscape:current-layer="layer1" /><defs
     id="defs2" /><g
     inkscape:label="Layer 1"
     inkscape:groupmode="layer"
     id="layer1"
     transform="translate(-33.618638,-91.344495)"><g
       id="g4904"
       transform="translate(-99.365485,-26.335122)"
       inkscape:export-filename="../../Pictures/icons/field_of_burial_mounds_special.svg"
       inkscape:export-xdpi="91.39727"
       inkscape:export-ydpi="91.39727"><ellipse
         style="fill:#f09937;fill-opacity:1;stroke-width:0.284353"
         id="path4748-6-6"
         cx="160.77489"
         cy="145.47038"
         rx="27.790764"
         ry="27.790766" /><path
         style="fill:#000000;stroke-width:0.288392"
         d="m 156.69725,168.95489 c -10.85455,-2.23383 -18.46239,-11.01184 -19.18165,-22.13198 -0.7207,-11.14249 6.51905,-21.35064 17.36412,-24.48364 3.02401,-0.8736 8.75842,-0.8736 11.78243,0 13.92576,4.02297 21.13673,19.20192 15.49152,32.60933 -2.73019,6.4842 -8.60348,11.64626 -15.40772,13.54191 -2.86088,0.79703 -7.41063,1.00729 -10.0487,0.46438 z m 21.58187,-9.60291 c 0,-0.29525 -17.37056,-37.55936 -17.50819,-37.55936 -0.13763,0 -17.50818,37.26411 -17.50818,37.55936 0,0.082 7.87868,0.14901 17.50818,0.14901 9.6295,0 17.50819,-0.067 17.50819,-0.14901 z"
         id="path4892" /></g></g></svg>
