<?xml version="1.0" encoding="UTF-8" standalone="no"?>
<!-- Created with Inkscape (http://www.inkscape.org/) -->

<svg
   width="62.678963mm"
   height="45.281876mm"
   viewBox="0 0 62.678963 45.281876"
   version="1.1"
   id="svg5"
   xml:space="preserve"
   xmlns:inkscape="http://www.inkscape.org/namespaces/inkscape"
   xmlns:sodipodi="http://sodipodi.sourceforge.net/DTD/sodipodi-0.dtd"
   xmlns="http://www.w3.org/2000/svg"
   xmlns:svg="http://www.w3.org/2000/svg"><sodipodi:namedview
     id="namedview7"
     pagecolor="#ffffff"
     bordercolor="#000000"
     borderopacity="0.25"
     inkscape:showpageshadow="2"
     inkscape:pageopacity="0.0"
     inkscape:pagecheckerboard="0"
     inkscape:deskcolor="#d1d1d1"
     inkscape:document-units="mm"
     showgrid="false" /><defs
     id="defs2" /><g
     inkscape:label="Layer 1"
     inkscape:groupmode="layer"
     id="layer1"
     transform="translate(-31.96,-226.55418)"><path
       style="fill:#000000;stroke-width:0.264583"
       d="m 59.008055,271.78384 c -7.27468,-1.03827 -12.55768,-2.885 -17.19792,-6.01174 -2.1363,-1.4395 -5.245699,-4.4639 -6.542106,-6.36326 -6.914492,-10.13038 -2.709062,-22.1868 9.996696,-28.65923 7.99072,-4.07054 17.7601,-5.24189 27.00799,-3.23826 11.55949,2.50446 20.08776,9.52758 22.08388,18.18628 0.38757,1.6812 0.37365,5.51359 -0.0263,7.23747 -0.4729,2.03836 -2.15581,5.5227 -3.52997,7.30852 -3.18134,4.1344 -8.36912,7.64597 -14.14154,9.57231 -4.18156,1.39545 -7.16371,1.87957 -12.22679,1.98489 -2.54662,0.053 -4.9874,0.0453 -5.42396,-0.017 z"
       id="path1574" /></g></svg>
