<?xml version="1.0" encoding="UTF-8" standalone="no"?>
<!-- Created with Inkscape (http://www.inkscape.org/) -->

<svg
   width="67.720467mm"
   height="47.896248mm"
   viewBox="0 0 67.720467 47.896248"
   version="1.1"
   id="svg5"
   xml:space="preserve"
   inkscape:version="1.2 (dc2aeda, 2022-05-15)"
   sodipodi:docname="monuments_special.svg"
   xmlns:inkscape="http://www.inkscape.org/namespaces/inkscape"
   xmlns:sodipodi="http://sodipodi.sourceforge.net/DTD/sodipodi-0.dtd"
   xmlns="http://www.w3.org/2000/svg"
   xmlns:svg="http://www.w3.org/2000/svg"><sodipodi:namedview
     id="namedview7"
     pagecolor="#ffffff"
     bordercolor="#000000"
     borderopacity="0.25"
     inkscape:showpageshadow="2"
     inkscape:pageopacity="0.0"
     inkscape:pagecheckerboard="0"
     inkscape:deskcolor="#d1d1d1"
     inkscape:document-units="mm"
     showgrid="false"
     inkscape:zoom="0.37511246"
     inkscape:cx="1464.894"
     inkscape:cy="313.2394"
     inkscape:window-width="3440"
     inkscape:window-height="1323"
     inkscape:window-x="1512"
     inkscape:window-y="25"
     inkscape:window-maximized="1"
     inkscape:current-layer="layer1" /><defs
     id="defs2" /><g
     inkscape:label="Layer 1"
     inkscape:groupmode="layer"
     id="layer1"
     transform="translate(-43.260953,-44.924109)"><g
       id="g7854"
       transform="translate(-76.104398,-20.406784)"
       inkscape:export-filename="../../Pictures/icons/fortified_settlement_special.svg"
       inkscape:export-xdpi="75.014252"
       inkscape:export-ydpi="75.014252"><path
         style="fill:#f09937;fill-opacity:1;stroke-width:0.302936"
         d="m 149.77243,113.16736 c -12.88023,-1.12362 -23.91056,-7.18426 -28.28605,-15.541835 -1.55115,-2.962857 -2.12103,-5.208158 -2.12103,-8.356763 0,-8.562074 6.05535,-16.019434 16.76879,-20.6513 12.53405,-5.418993 29.55201,-4.018582 40.4482,3.32849 4.57816,3.086947 8.32974,7.760151 9.69224,12.073246 4.00774,12.686762 -7.22062,25.442002 -25.14855,28.568372 -2.57553,0.44914 -9.05707,0.78013 -11.3536,0.57979 z"
         id="path7680-6" /><path
         style="fill:#000000;stroke-width:0.264583"
         d="m 150.05059,110.14295 c -11.24952,-0.98135 -20.88335,-6.27468 -24.70487,-13.574144 -1.35477,-2.587742 -1.8525,-4.548775 -1.8525,-7.298748 0,-7.478065 5.28871,-13.991279 14.64576,-18.036724 10.94717,-4.732917 25.81056,-3.509806 35.32723,2.907084 3.99853,2.696121 7.27514,6.77767 8.46514,10.544701 3.50034,11.080544 -6.30644,22.220901 -21.9646,24.951451 -2.24945,0.39227 -7.91039,0.68136 -9.91616,0.50638 z"
         id="path7680" /></g></g></svg>
