<?xml version="1.0" encoding="UTF-8" standalone="no"?>
<!-- Created with Inkscape (http://www.inkscape.org/) -->

<svg
   width="55.618073mm"
   height="55.573647mm"
   viewBox="0 0 55.618073 55.573647"
   version="1.1"
   id="svg5"
   xml:space="preserve"
   inkscape:version="1.2 (dc2aeda, 2022-05-15)"
   sodipodi:docname="monuments_special.svg"
   xmlns:inkscape="http://www.inkscape.org/namespaces/inkscape"
   xmlns:sodipodi="http://sodipodi.sourceforge.net/DTD/sodipodi-0.dtd"
   xmlns="http://www.w3.org/2000/svg"
   xmlns:svg="http://www.w3.org/2000/svg"><sodipodi:namedview
     id="namedview7"
     pagecolor="#ffffff"
     bordercolor="#000000"
     borderopacity="0.25"
     inkscape:showpageshadow="2"
     inkscape:pageopacity="0.0"
     inkscape:pagecheckerboard="0"
     inkscape:deskcolor="#d1d1d1"
     inkscape:document-units="mm"
     showgrid="false"
     inkscape:zoom="0.37511246"
     inkscape:cx="1464.894"
     inkscape:cy="313.2394"
     inkscape:window-width="3440"
     inkscape:window-height="1323"
     inkscape:window-x="1512"
     inkscape:window-y="25"
     inkscape:window-maximized="1"
     inkscape:current-layer="layer1" /><defs
     id="defs2" /><g
     inkscape:label="Layer 1"
     inkscape:groupmode="layer"
     id="layer1"
     transform="translate(186.43137,-116.93042)"><g
       id="g347"
       transform="translate(-245.43823,58.508507)"
       inkscape:export-filename="../../Pictures/icons/misc_carved_special.svg"
       inkscape:export-xdpi="91.337212"
       inkscape:export-ydpi="91.337212"><path
         style="fill:#f09937;fill-opacity:1;stroke:none;stroke-width:0.314223;stroke-opacity:1"
         d="m 72.867464,86.265445 c 7.62333,-15.251569 13.90782,-27.781079 13.96555,-27.843357 0.10222,-0.110271 27.791926,55.101582 27.791926,55.415662 0,0.0867 -12.51407,0.15781 -27.809056,0.15781 h -27.80902 z"
         id="path4974-8-7-5" /><path
         style="fill:#000000;stroke:none;stroke-width:0.242873;stroke-opacity:1"
         d="m 75.943211,88.603091 c 5.90836,-11.817629 10.81025,-21.408079 10.89309,-21.312113 0.0828,0.09597 4.97555,9.764936 10.87268,21.486597 L 108.43107,110.08971 H 86.815891 65.200741 Z m 15.20329,6.525731 c 1.89283,-3.61996 3.44151,-6.652837 3.44151,-6.739728 0,-0.08689 -3.7706,-0.157983 -8.37912,-0.157983 -4.60852,0 -8.37912,0.0755 -8.37912,0.167774 0,0.09227 1.87744,3.751 4.17209,8.130496 l 4.1721,7.962749 0.76551,-1.39077 c 0.42103,-0.76492 2.31419,-4.352568 4.20703,-7.972538 z"
         id="path6514" /></g></g></svg>
