<?xml version="1.0" encoding="UTF-8" standalone="no"?>
<!-- Created with Inkscape (http://www.inkscape.org/) -->

<svg
   width="52.637512mm"
   height="53.048965mm"
   viewBox="0 0 52.637512 53.048965"
   version="1.1"
   id="svg5"
   xml:space="preserve"
   xmlns:inkscape="http://www.inkscape.org/namespaces/inkscape"
   xmlns:sodipodi="http://sodipodi.sourceforge.net/DTD/sodipodi-0.dtd"
   xmlns="http://www.w3.org/2000/svg"
   xmlns:svg="http://www.w3.org/2000/svg"><sodipodi:namedview
     id="namedview7"
     pagecolor="#ffffff"
     bordercolor="#000000"
     borderopacity="0.25"
     inkscape:showpageshadow="2"
     inkscape:pageopacity="0.0"
     inkscape:pagecheckerboard="0"
     inkscape:deskcolor="#d1d1d1"
     inkscape:document-units="mm"
     showgrid="false" /><defs
     id="defs2" /><g
     inkscape:label="Layer 1"
     inkscape:groupmode="layer"
     id="layer1"
     transform="translate(-121.45537,-218.78709)"><path
       style="fill:#ffffff;fill-opacity:1;stroke-width:0.264583"
       d="m 147.7012,218.78709 -26.24583,52.95325 52.6375,-0.10274 -26.39167,-52.85051"
       id="path2301"
       inkscape:export-filename="misc_carved_black.svg"
       inkscape:export-xdpi="96.482399"
       inkscape:export-ydpi="96.482399" /><path
       style="fill:#da3b26;fill-opacity:1;stroke-width:0.264583"
       d="m 121.45537,271.74035 c 0,-0.0526 5.90531,-11.98864 13.12291,-26.52447 l 13.12292,-26.42879 13.18854,26.32605 c 7.2537,14.47932 13.19511,26.41533 13.20313,26.52447 0.008,0.10914 -11.83214,0.19844 -26.31146,0.19844 -14.47933,0 -26.32604,-0.0431 -26.32604,-0.0957 z m 30.55723,-15.97167 4.552,-8.67117 -4.57284,-0.0722 c -2.51507,-0.0397 -6.71774,-0.0397 -9.33927,0 l -4.76643,0.0722 3.18844,6.08542 c 5.2763,10.0703 6.08857,11.55445 6.24054,11.40247 0.0801,-0.0801 2.19396,-4.04758 4.69756,-8.81672 z"
       id="path2299" /></g></svg>
