<?xml version="1.0" encoding="UTF-8" standalone="no"?>
<!-- Created with Inkscape (http://www.inkscape.org/) -->

<svg
   width="66.848373mm"
   height="62.553734mm"
   viewBox="0 0 66.848373 62.553734"
   version="1.1"
   id="svg5"
   xml:space="preserve"
   inkscape:version="1.2 (dc2aeda, 2022-05-15)"
   sodipodi:docname="monuments_special.svg"
   xmlns:inkscape="http://www.inkscape.org/namespaces/inkscape"
   xmlns:sodipodi="http://sodipodi.sourceforge.net/DTD/sodipodi-0.dtd"
   xmlns="http://www.w3.org/2000/svg"
   xmlns:svg="http://www.w3.org/2000/svg"><sodipodi:namedview
     id="namedview7"
     pagecolor="#ffffff"
     bordercolor="#000000"
     borderopacity="0.25"
     inkscape:showpageshadow="2"
     inkscape:pageopacity="0.0"
     inkscape:pagecheckerboard="0"
     inkscape:deskcolor="#d1d1d1"
     inkscape:document-units="mm"
     showgrid="false"
     inkscape:zoom="0.37511246"
     inkscape:cx="1464.894"
     inkscape:cy="313.2394"
     inkscape:window-width="3440"
     inkscape:window-height="1323"
     inkscape:window-x="1512"
     inkscape:window-y="25"
     inkscape:window-maximized="1"
     inkscape:current-layer="layer1" /><defs
     id="defs2" /><g
     inkscape:label="Layer 1"
     inkscape:groupmode="layer"
     id="layer1"
     transform="translate(-69.371797,-104.03811)"><g
       id="g368"
       transform="translate(-107.06865,-212.62929)"
       inkscape:export-filename="../../Pictures/icons/monument_misc_special.svg"
       inkscape:export-xdpi="91.397278"
       inkscape:export-ydpi="91.397278"><path
         style="fill:#f09937;fill-opacity:1;stroke-width:0.400724"
         d="m 185.00999,383.24439 c 2.55212,-7.66764 7.41536,-22.99461 7.39699,-23.31234 -0.0136,-0.23682 -4.62967,-3.81167 -10.25773,-7.94414 l -10.23283,-7.51358 h 12.77842 12.77842 l 3.86448,-11.72118 c 2.12545,-6.44664 4.0116,-11.64892 4.19143,-11.56062 0.17983,0.0883 2.02856,5.36039 4.10828,11.71574 l 3.78132,11.55515 12.67301,0.10557 12.67301,0.10556 -10.12037,7.41339 c -5.56621,4.07736 -10.13006,7.59372 -10.1419,7.81412 -0.0121,0.2204 1.68083,5.62544 3.76147,12.01118 2.08066,6.38576 3.71488,11.67858 3.63164,11.76181 -0.0833,0.0833 -4.62618,-3.11218 -10.09543,-7.10095 -5.46924,-3.98879 -10.16757,-7.20786 -10.44073,-7.1535 -0.27317,0.0544 -4.90779,3.29962 -10.29915,7.2117 -5.39137,3.91206 -9.89577,7.11285 -10.00977,7.11285 -0.11405,0 -0.13222,-0.22541 -0.0406,-0.50091 z"
         id="path10410-8" /><path
         style="fill:#000000;stroke-width:0.264583"
         d="m 191.91705,372.78861 c 1.68507,-5.06265 4.89609,-15.18248 4.88396,-15.39227 -0.009,-0.15636 -3.0568,-2.5167 -6.7728,-5.24522 l -6.75636,-4.96094 h 8.43712 8.43712 l 2.55157,-7.73906 c 1.40336,-4.25648 2.64871,-7.69135 2.76745,-7.63306 0.11873,0.0583 1.33938,3.53927 2.71254,7.73548 l 2.49667,7.62944 8.36752,0.0697 8.36752,0.0697 -6.68211,4.89479 c -3.67516,2.69213 -6.6885,5.01385 -6.69632,5.15937 -0.008,0.14552 1.10979,3.71427 2.48356,7.93054 1.37378,4.21628 2.4528,7.71093 2.39784,7.76589 -0.055,0.055 -3.0545,-2.05486 -6.66564,-4.6885 -3.61114,-2.63365 -6.71327,-4.75908 -6.89363,-4.72319 -0.18036,0.0359 -3.24043,2.17862 -6.80015,4.76162 -3.55972,2.58299 -6.53381,4.69635 -6.60908,4.69635 -0.0753,0 -0.0873,-0.14883 -0.0268,-0.33073 z"
         id="path10410" /></g></g></svg>
