<?xml version="1.0" encoding="UTF-8" standalone="no"?>
<!-- Created with Inkscape (http://www.inkscape.org/) -->

<svg
   width="52.663345mm"
   height="52.714851mm"
   viewBox="0 0 52.663345 52.714851"
   version="1.1"
   id="svg5"
   xml:space="preserve"
   xmlns:inkscape="http://www.inkscape.org/namespaces/inkscape"
   xmlns:sodipodi="http://sodipodi.sourceforge.net/DTD/sodipodi-0.dtd"
   xmlns="http://www.w3.org/2000/svg"
   xmlns:svg="http://www.w3.org/2000/svg"><sodipodi:namedview
     id="namedview7"
     pagecolor="#ffffff"
     bordercolor="#000000"
     borderopacity="0.25"
     inkscape:showpageshadow="2"
     inkscape:pageopacity="0.0"
     inkscape:pagecheckerboard="0"
     inkscape:deskcolor="#d1d1d1"
     inkscape:document-units="mm"
     showgrid="false" /><defs
     id="defs2" /><g
     inkscape:label="Layer 1"
     inkscape:groupmode="layer"
     id="layer1"
     transform="translate(-41.994828,-56.073492)"><ellipse
       style="fill:#ffffff;fill-opacity:1;stroke-width:0.264583"
       id="path2585"
       cx="68.3265"
       cy="82.430916"
       rx="26.331671"
       ry="26.357424"
       inkscape:export-filename="monument_black.svg"
       inkscape:export-xdpi="100"
       inkscape:export-ydpi="100" /><path
       style="fill:#da3b26;fill-opacity:1;stroke-width:0.264583"
       d="M 65.283793,108.70372 C 53.730797,106.99179 45.0211,99.114926 42.494648,88.093705 c -0.666426,-2.90717 -0.666426,-8.469913 0,-11.377082 2.299189,-10.029822 10.11349,-17.844124 20.143312,-20.143312 2.907169,-0.666426 8.469913,-0.666426 11.377083,0 5.559152,1.274354 10.994945,4.562181 14.474988,8.755163 2.710114,3.265324 4.742143,7.347849 5.668322,11.388149 0.666427,2.907169 0.666427,8.469912 0,11.377082 -2.258525,9.85244 -9.86986,17.614525 -19.614144,20.002625 -2.056079,0.5039 -7.534079,0.8632 -9.260416,0.60739 z M 62.604084,94.725971 c 2.891784,-1.997012 5.392096,-3.681714 5.556248,-3.743783 0.164153,-0.06207 3.036898,1.780836 6.383877,4.095342 3.346979,2.314509 6.118111,4.177451 6.158071,4.139878 0.03996,-0.03758 -1.004538,-3.210246 -2.321107,-7.050379 -1.941113,-5.661779 -2.326084,-7.032249 -2.03585,-7.247482 0.196856,-0.145984 2.874849,-2.170425 5.951098,-4.498758 l 5.593183,-4.233333 -7.381464,-0.07023 -7.381465,-0.07024 -2.330201,-7.007369 c -1.28161,-3.854054 -2.393098,-7.00737 -2.469973,-7.00737 -0.07687,0 -1.188363,3.153316 -2.469973,7.00737 l -2.3302,7.007369 -7.381465,0.07024 -7.381466,0.07023 5.593183,4.233333 c 3.076251,2.328333 5.755604,4.353769 5.954118,4.500967 0.294268,0.218197 -0.08057,1.554033 -2.029338,7.232113 -1.314651,3.830463 -2.390275,7.022121 -2.390275,7.092571 0,0.07045 0.327422,-0.100877 0.727604,-0.380725 0.400182,-0.279849 3.09361,-2.142736 5.985395,-4.139744 z"
       id="path2321"
       inkscape:export-filename="path2321.svg"
       inkscape:export-xdpi="96.461777"
       inkscape:export-ydpi="96.461777" /></g></svg>
