<?xml version="1.0" encoding="UTF-8" standalone="no"?>
<!-- Created with Inkscape (http://www.inkscape.org/) -->

<svg
   width="55.581528mm"
   height="55.581528mm"
   viewBox="0 0 55.581528 55.581528"
   version="1.1"
   id="svg5"
   xml:space="preserve"
   inkscape:version="1.2 (dc2aeda, 2022-05-15)"
   sodipodi:docname="monuments_special.svg"
   xmlns:inkscape="http://www.inkscape.org/namespaces/inkscape"
   xmlns:sodipodi="http://sodipodi.sourceforge.net/DTD/sodipodi-0.dtd"
   xmlns="http://www.w3.org/2000/svg"
   xmlns:svg="http://www.w3.org/2000/svg"><sodipodi:namedview
     id="namedview7"
     pagecolor="#ffffff"
     bordercolor="#000000"
     borderopacity="0.25"
     inkscape:showpageshadow="2"
     inkscape:pageopacity="0.0"
     inkscape:pagecheckerboard="0"
     inkscape:deskcolor="#d1d1d1"
     inkscape:document-units="mm"
     showgrid="false"
     inkscape:zoom="0.37511246"
     inkscape:cx="1464.894"
     inkscape:cy="313.2394"
     inkscape:window-width="3440"
     inkscape:window-height="1323"
     inkscape:window-x="1512"
     inkscape:window-y="25"
     inkscape:window-maximized="1"
     inkscape:current-layer="layer1" /><defs
     id="defs2" /><g
     inkscape:label="Layer 1"
     inkscape:groupmode="layer"
     id="layer1"
     transform="translate(-68.262346,-98.268445)"><g
       id="g11348"
       transform="translate(-199.05721,-229.9714)"
       inkscape:export-filename="../../Pictures/icons/monument_special.svg"
       inkscape:export-xdpi="91.397278"
       inkscape:export-ydpi="91.397278"><ellipse
         style="fill:#f09937;fill-opacity:1;stroke-width:0.284353"
         id="path4748-6-3"
         cx="295.11032"
         cy="356.03061"
         rx="27.790764"
         ry="27.790766" /><path
         style="fill:#000000;stroke-width:0.249583"
         d="m 292.22707,379.69555 c -5.7482,-0.76511 -10.78239,-3.41448 -14.73758,-7.75608 -10.72894,-11.77711 -7.06455,-30.49187 7.34406,-37.50741 1.02816,-0.50062 2.92177,-1.20582 4.208,-1.56715 2.03216,-0.57086 2.83239,-0.65695 6.10704,-0.65695 3.26449,0 4.07773,0.087 6.08094,0.64997 10.97188,3.08383 18.27639,13.17575 17.66814,24.41028 -0.46312,8.55384 -5.39597,16.07529 -13.11582,19.99855 -3.99334,2.02943 -9.34744,2.98879 -13.55478,2.42879 z m -3.22008,-9.15196 c 3.44475,-2.63325 6.42728,-4.78772 6.62785,-4.78772 0.20061,0 3.19301,2.16201 6.64984,4.80448 3.45683,2.64245 6.33455,4.75237 6.39494,4.68874 0.0604,-0.0637 -0.99004,-3.65125 -2.33432,-7.97242 -1.34427,-4.32118 -2.44415,-7.90245 -2.44415,-7.95836 0,-0.0558 2.96166,-2.3848 6.58146,-5.17529 l 6.58147,-5.07365 -8.21677,-0.12812 -8.21681,-0.1281 -2.43705,-7.87798 c -1.34036,-4.33287 -2.49174,-7.87735 -2.55861,-7.87656 -0.0668,7.6e-4 -1.21865,3.54585 -2.55955,7.87797 l -2.43797,7.87657 -8.21586,0.1281 -8.21584,0.12812 6.58148,5.07365 c 3.61981,2.79049 6.58147,5.11508 6.58147,5.16574 0,0.0507 -1.09409,3.62327 -2.43128,7.93912 -2.52649,8.15439 -2.50619,8.08344 -2.31236,8.08344 0.0655,0 2.93732,-2.15449 6.38206,-4.78773 z"
         id="path11251" /></g></g></svg>
