<?xml version="1.0" encoding="UTF-8" standalone="no"?>
<!-- Created with Inkscape (http://www.inkscape.org/) -->

<svg
   width="54.967621mm"
   height="51.829922mm"
   viewBox="0 0 54.967621 51.829922"
   version="1.1"
   id="svg5"
   xml:space="preserve"
   xmlns:inkscape="http://www.inkscape.org/namespaces/inkscape"
   xmlns:sodipodi="http://sodipodi.sourceforge.net/DTD/sodipodi-0.dtd"
   xmlns="http://www.w3.org/2000/svg"
   xmlns:svg="http://www.w3.org/2000/svg"><sodipodi:namedview
     id="namedview7"
     pagecolor="#ffffff"
     bordercolor="#000000"
     borderopacity="0.25"
     inkscape:showpageshadow="2"
     inkscape:pageopacity="0.0"
     inkscape:pagecheckerboard="0"
     inkscape:deskcolor="#d1d1d1"
     inkscape:document-units="mm"
     showgrid="false" /><defs
     id="defs2" /><g
     inkscape:label="Layer 1"
     inkscape:groupmode="layer"
     id="layer1"
     transform="translate(-38.861428,-49.140917)"><path
       style="fill:#000000;stroke-width:0.264583"
       d="m 49.482428,100.72845 c 0.0029,-0.17549 1.426918,-4.660783 3.164394,-9.967313 1.737478,-5.30652 3.062608,-9.71183 2.944728,-9.78958 -0.11787,-0.0777 -3.930371,-2.82026 -8.472217,-6.09447 l -8.257903,-5.95313 10.507079,-0.132291 10.507081,-0.132292 3.18468,-9.859087 c 1.75158,-5.422497 3.26797,-9.768278 3.36977,-9.657291 0.10179,0.110987 1.59079,4.57601 3.30888,9.922274 l 3.1238,9.720481 10.48316,0.0691 10.48317,0.0691 -8.41765,6.067046 c -4.62971,3.33688 -8.41699,6.13485 -8.41617,6.21771 7.9e-4,0.0829 1.42729,4.54832 3.16995,9.92325 1.74266,5.37492 3.1388,9.802243 3.10254,9.838513 -0.0363,0.0363 -3.81422,-2.662333 -8.39547,-5.996853 -4.58125,-3.33453 -8.40905,-6.06522 -8.50623,-6.0682 -0.0972,-0.003 -3.93695,2.72777 -8.53281,6.06834 -4.595872,3.34057 -8.353723,5.930183 -8.350782,5.754693 z"
       id="path3096" /></g></svg>
