<?xml version="1.0" encoding="UTF-8" standalone="no"?>
<!-- Created with Inkscape (http://www.inkscape.org/) -->

<svg
   width="52.916649mm"
   height="52.916656mm"
   viewBox="0 0 52.916649 52.916656"
   version="1.1"
   id="svg5"
   xml:space="preserve"
   xmlns:inkscape="http://www.inkscape.org/namespaces/inkscape"
   xmlns:sodipodi="http://sodipodi.sourceforge.net/DTD/sodipodi-0.dtd"
   xmlns="http://www.w3.org/2000/svg"
   xmlns:svg="http://www.w3.org/2000/svg"><sodipodi:namedview
     id="namedview7"
     pagecolor="#ffffff"
     bordercolor="#000000"
     borderopacity="0.25"
     inkscape:showpageshadow="2"
     inkscape:pageopacity="0.0"
     inkscape:pagecheckerboard="0"
     inkscape:deskcolor="#d1d1d1"
     inkscape:document-units="mm"
     showgrid="false" /><defs
     id="defs2" /><g
     inkscape:label="Layer 1"
     inkscape:groupmode="layer"
     id="layer1"
     transform="translate(-114.0446,-229.9649)"><rect
       style="fill:#ffffff;fill-opacity:1;stroke-width:0.264583"
       id="rect7190-0"
       width="52.91666"
       height="52.916656"
       x="114.0446"
       y="229.9649" /><path
       style="fill:#da3b26;fill-opacity:1;stroke-width:0.264583"
       d="m 114.0446,256.42325 v -26.45833 h 26.45833 26.45833 v 26.45833 26.45833 H 140.50293 114.0446 Z m 13.70554,6.87917 0.0795,-12.8323 3.10953,8.86355 c 1.71024,4.87494 3.74419,10.68268 4.51989,12.90607 l 1.41035,4.04254 3.31651,-0.0738 3.3165,-0.0738 4.51953,-13.08325 4.51952,-13.08325 0.0686,13.1494 0.0686,13.14939 h 3.96628 3.96628 v -18.92268 -18.92267 l -5.98188,0.0711 -5.98188,0.0711 -4.01736,12.43542 c -2.20956,6.83948 -4.07185,12.58391 -4.13844,12.76541 -0.0666,0.18149 -2.08559,-5.44347 -4.48669,-12.49992 l -4.36562,-12.82991 -6.01927,-0.002 -6.01927,-0.002 v 18.74132 c 0,10.30773 0.0824,18.82375 0.18317,18.92449 0.10074,0.10075 1.91645,0.15035 4.03489,0.11024 l 3.85173,-0.0729 z"
       id="path7188-3" /></g></svg>
