<?xml version="1.0" encoding="UTF-8" standalone="no"?>
<!-- Created with Inkscape (http://www.inkscape.org/) -->

<svg
   width="55.581528mm"
   height="55.581543mm"
   viewBox="0 0 55.581528 55.581543"
   version="1.1"
   id="svg5"
   xml:space="preserve"
   inkscape:version="1.2 (dc2aeda, 2022-05-15)"
   sodipodi:docname="monuments_special.svg"
   xmlns:inkscape="http://www.inkscape.org/namespaces/inkscape"
   xmlns:sodipodi="http://sodipodi.sourceforge.net/DTD/sodipodi-0.dtd"
   xmlns="http://www.w3.org/2000/svg"
   xmlns:svg="http://www.w3.org/2000/svg"><sodipodi:namedview
     id="namedview7"
     pagecolor="#ffffff"
     bordercolor="#000000"
     borderopacity="0.25"
     inkscape:showpageshadow="2"
     inkscape:pageopacity="0.0"
     inkscape:pagecheckerboard="0"
     inkscape:deskcolor="#d1d1d1"
     inkscape:document-units="mm"
     showgrid="false"
     inkscape:zoom="0.37511246"
     inkscape:cx="1464.894"
     inkscape:cy="313.2394"
     inkscape:window-width="3440"
     inkscape:window-height="1323"
     inkscape:window-x="1512"
     inkscape:window-y="25"
     inkscape:window-maximized="1"
     inkscape:current-layer="layer1" /><defs
     id="defs2" /><g
     inkscape:label="Layer 1"
     inkscape:groupmode="layer"
     id="layer1"
     transform="translate(132.07212,-149.00346)"><g
       id="g376"
       transform="translate(-247.31303,-289.82926)"
       inkscape:export-filename="../../Pictures/icons/museum_special.svg"
       inkscape:export-xdpi="91.397278"
       inkscape:export-ydpi="91.397278"><rect
         style="fill:#f09937;fill-opacity:1;stroke-width:0.264583"
         id="rect363-5-97"
         width="55.581532"
         height="55.581532"
         x="115.24091"
         y="438.83273" /><path
         style="fill:#000000;stroke-width:0.307678"
         d="m 117.95397,466.61532 v -23.23531 l 7.30738,0.0824 7.30736,0.0824 5.10224,15.03734 c 2.80624,8.27055 5.23167,15.24252 5.38986,15.4933 0.20667,0.32764 1.05079,-1.9124 2.99981,-7.96074 1.49172,-4.62917 3.75122,-11.63824 5.02111,-15.57571 l 2.30889,-7.15904 7.28057,0.0824 7.28057,0.0824 0.0788,23.15281 0.0788,23.15283 h -4.92481 -4.9248 l -0.009,-15.92238 c -0.005,-8.91299 -0.12457,-15.71919 -0.27108,-15.46085 -0.14394,0.25384 -2.66594,7.4226 -5.60444,15.93057 l -5.34272,15.46905 -4.11581,-0.0851 -4.11581,-0.0851 -5.48717,-15.69161 -5.48715,-15.69162 -0.0134,15.76854 -0.0134,15.76853 h -4.92285 -4.92286 z"
         id="path11350" /></g></g></svg>
