<?xml version="1.0" encoding="UTF-8" standalone="no"?>
<!-- Created with Inkscape (http://www.inkscape.org/) -->

<svg
   width="52.916664mm"
   height="52.916664mm"
   viewBox="0 0 52.916664 52.916664"
   version="1.1"
   id="svg5"
   xml:space="preserve"
   xmlns:inkscape="http://www.inkscape.org/namespaces/inkscape"
   xmlns:sodipodi="http://sodipodi.sourceforge.net/DTD/sodipodi-0.dtd"
   xmlns="http://www.w3.org/2000/svg"
   xmlns:svg="http://www.w3.org/2000/svg"><sodipodi:namedview
     id="namedview7"
     pagecolor="#ffffff"
     bordercolor="#000000"
     borderopacity="0.25"
     inkscape:showpageshadow="2"
     inkscape:pageopacity="0.0"
     inkscape:pagecheckerboard="0"
     inkscape:deskcolor="#d1d1d1"
     inkscape:document-units="mm"
     showgrid="false" /><defs
     id="defs2" /><g
     inkscape:label="Layer 1"
     inkscape:groupmode="layer"
     id="layer1"
     transform="translate(-87.586268,-117.37764)"><rect
       style="fill:#ffffff;fill-opacity:1;stroke-width:0.264583"
       id="rect7190"
       width="52.91666"
       height="52.916656"
       x="87.586266"
       y="117.37765" /><path
       style="fill:#000000;stroke-width:0.264583"
       d="m 87.586268,143.83598 v -26.45833 h 26.458332 26.45833 v 26.45833 26.45833 H 114.0446 87.586268 Z m 13.705542,6.87917 0.0795,-12.8323 3.10953,8.86355 c 1.71024,4.87494 3.74419,10.68268 4.51989,12.90607 l 1.41035,4.04254 3.31651,-0.0738 3.3165,-0.0738 4.51953,-13.08325 4.51952,-13.08325 0.0686,13.1494 0.0686,13.14939 h 3.96628 3.96628 v -18.92268 -18.92267 l -5.98188,0.0711 -5.98188,0.0711 -4.01736,12.43542 c -2.20956,6.83948 -4.07185,12.58391 -4.13844,12.76541 -0.0666,0.18149 -2.08559,-5.44347 -4.48669,-12.49992 l -4.36562,-12.82991 -6.019272,-0.002 -6.019271,-0.002 v 18.74132 c 0,10.30773 0.08243,18.82375 0.183171,18.92449 0.100744,0.10075 1.916447,0.15035 4.034896,0.11024 l 3.851726,-0.0729 z"
       id="path7188" /></g></svg>
