<?xml version="1.0" encoding="UTF-8" standalone="no"?>
<!-- Created with Inkscape (http://www.inkscape.org/) -->

<svg
   width="52.916679mm"
   height="52.916672mm"
   viewBox="0 0 52.916679 52.916672"
   version="1.1"
   id="svg5"
   xml:space="preserve"
   xmlns:inkscape="http://www.inkscape.org/namespaces/inkscape"
   xmlns:sodipodi="http://sodipodi.sourceforge.net/DTD/sodipodi-0.dtd"
   xmlns="http://www.w3.org/2000/svg"
   xmlns:svg="http://www.w3.org/2000/svg"><sodipodi:namedview
     id="namedview7"
     pagecolor="#ffffff"
     bordercolor="#000000"
     borderopacity="0.25"
     inkscape:showpageshadow="2"
     inkscape:pageopacity="0.0"
     inkscape:pagecheckerboard="0"
     inkscape:deskcolor="#d1d1d1"
     inkscape:document-units="mm"
     showgrid="false" /><defs
     id="defs2" /><g
     inkscape:label="Layer 1"
     inkscape:groupmode="layer"
     id="layer1"
     transform="translate(-120.69757,-209.81178)"><rect
       style="fill:#ffffff;fill-opacity:1;stroke-width:0.264583"
       id="rect3575"
       width="52.916672"
       height="52.916656"
       x="120.69756"
       y="209.81177" /><path
       style="fill:#000000;stroke-width:0.264583"
       d="m 132.76454,262.00084 c -0.37845,-1.66335 -0.4864,-6.84825 -0.17376,-8.34607 1.09606,-5.25116 5.68004,-10.00994 11.01764,-11.43777 2.01603,-0.5393 5.874,-0.53894 7.89155,7.9e-4 5.059,1.35324 9.5061,5.85011 10.87599,10.9977 0.46277,1.73892 0.5016,5.16556 0.087,7.6761 l -0.30336,1.83685 h -14.61476 -14.61475 z m 19.39666,-9.14269 c 2.08176,-3.75517 3.73034,-6.88226 3.66352,-6.94908 -0.0668,-0.0668 -3.8703,-0.09 -8.45215,-0.0516 l -8.33065,0.0699 4.22707,7.61464 4.22706,7.61464 0.44007,-0.73547 c 0.24204,-0.40451 2.14333,-3.80789 4.22508,-7.56306 z m -31.44394,-21.94585 -0.0197,-21.10052 h 26.45834 26.45833 l -0.009,19.64531 -0.009,19.64531 -0.75111,-1.90357 c -3.17748,-8.05276 -9.52256,-13.78302 -18.1484,-16.38983 -2.19052,-0.662 -2.75212,-0.7206 -7.01146,-0.73162 -5.38847,-0.0139 -7.42455,0.39926 -11.54181,2.34231 -3.23597,1.52715 -5.38797,3.02644 -7.78611,5.42458 -3.30893,3.30893 -5.81705,7.59946 -7.03389,12.03258 l -0.58629,2.13597 z"
       id="path3521" /></g></svg>
