<?xml version="1.0" encoding="UTF-8" standalone="no"?>
<!-- Created with Inkscape (http://www.inkscape.org/) -->

<svg
   width="55.581528mm"
   height="55.581532mm"
   viewBox="0 0 55.581528 55.581532"
   version="1.1"
   id="svg5"
   xml:space="preserve"
   inkscape:version="1.2 (dc2aeda, 2022-05-15)"
   sodipodi:docname="monuments_special.svg"
   xmlns:inkscape="http://www.inkscape.org/namespaces/inkscape"
   xmlns:sodipodi="http://sodipodi.sourceforge.net/DTD/sodipodi-0.dtd"
   xmlns="http://www.w3.org/2000/svg"
   xmlns:svg="http://www.w3.org/2000/svg"><sodipodi:namedview
     id="namedview7"
     pagecolor="#ffffff"
     bordercolor="#000000"
     borderopacity="0.25"
     inkscape:showpageshadow="2"
     inkscape:pageopacity="0.0"
     inkscape:pagecheckerboard="0"
     inkscape:deskcolor="#d1d1d1"
     inkscape:document-units="mm"
     showgrid="false"
     inkscape:zoom="0.37511246"
     inkscape:cx="1464.894"
     inkscape:cy="313.2394"
     inkscape:window-width="3440"
     inkscape:window-height="1323"
     inkscape:window-x="1512"
     inkscape:window-y="25"
     inkscape:window-maximized="1"
     inkscape:current-layer="layer1" /><defs
     id="defs2" /><g
     inkscape:label="Layer 1"
     inkscape:groupmode="layer"
     id="layer1"
     transform="translate(113.81916,61.929629)"><g
       id="g4328"
       transform="translate(-233.41546,-111.45483)"
       inkscape:export-filename="../../Pictures/icons/painted_cave_special.svg"
       inkscape:export-xdpi="91.397263"
       inkscape:export-ydpi="91.397263"><rect
         style="fill:#f09937;fill-opacity:1;stroke-width:0.264583"
         id="rect363-0"
         width="55.581532"
         height="55.581532"
         x="119.59629"
         y="49.5252" /><path
         style="fill:#000000;stroke-width:0.264583"
         d="m 131.50007,100.00477 c -0.66642,-3.950986 0.12535,-8.191344 2.10578,-11.277581 1.21187,-1.888535 4.16883,-4.579943 6.0824,-5.536166 4.63357,-2.315424 10.17474,-2.119471 14.79356,0.523153 3.32926,1.904807 6.42088,6.165583 7.20385,9.928122 0.3244,1.558877 0.22549,6.909322 -0.14451,7.816892 -0.1766,0.43319 -1.14013,0.46303 -14.95321,0.46303 h -14.76446 z m 22.64169,-11.840887 1.40655,-2.513542 -4.2134,-0.0727 c -2.31737,-0.03999 -6.10119,-0.03999 -8.40848,0 l -4.19508,0.0727 3.99726,7.14375 c 2.1985,3.929062 4.09892,7.301649 4.22316,7.494639 0.15634,0.24286 1.08144,-1.182734 3.00466,-4.630207 1.52833,-2.739604 3.41172,-6.112192 4.18533,-7.49464 z m 17.22284,-2.197497 c -0.8816,-2.308429 -3.17393,-5.60075 -5.57605,-8.00849 -3.74213,-3.750892 -7.48173,-5.920351 -12.58163,-7.298999 -1.89963,-0.513524 -2.90652,-0.608813 -6.48229,-0.613465 -4.6332,-0.006 -6.46597,0.312536 -10.16644,1.767079 -5.14226,2.021272 -10.43485,6.466735 -13.00974,10.927414 l -0.76364,1.322916 -0.002,-15.676562 -0.002,-15.676562 h 24.60625 24.60625 v 17.197916 c 0,9.458854 -0.0434,17.197917 -0.0963,17.197917 -0.053,0 -0.29212,-0.512625 -0.5314,-1.139164 z"
         id="path4250" /></g></g></svg>
