<?xml version="1.0" encoding="UTF-8" standalone="no"?>
<!-- Created with Inkscape (http://www.inkscape.org/) -->

<svg
   width="52.637512mm"
   height="53.04895mm"
   viewBox="0 0 52.637512 53.04895"
   version="1.1"
   id="svg5"
   xml:space="preserve"
   xmlns:inkscape="http://www.inkscape.org/namespaces/inkscape"
   xmlns:sodipodi="http://sodipodi.sourceforge.net/DTD/sodipodi-0.dtd"
   xmlns="http://www.w3.org/2000/svg"
   xmlns:svg="http://www.w3.org/2000/svg"><sodipodi:namedview
     id="namedview7"
     pagecolor="#ffffff"
     bordercolor="#000000"
     borderopacity="0.25"
     inkscape:showpageshadow="2"
     inkscape:pageopacity="0.0"
     inkscape:pagecheckerboard="0"
     inkscape:deskcolor="#d1d1d1"
     inkscape:document-units="mm"
     showgrid="false" /><defs
     id="defs2" /><g
     inkscape:label="Layer 1"
     inkscape:groupmode="layer"
     id="layer1"
     transform="translate(-126.53522,-222.67065)"><path
       style="fill:#ffffff;fill-opacity:1;stroke-width:0.264583"
       d="m 152.78106,222.67064 -26.24584,52.95328 52.63751,-0.10274 z"
       id="path1895"
       inkscape:export-filename="rune_stone_black.svg"
       inkscape:export-xdpi="96.482399"
       inkscape:export-ydpi="96.482399" /><path
       style="fill:#da3b26;fill-opacity:1;stroke-width:0.264583"
       d="m 126.53522,275.62391 c 0,-0.0526 5.90532,-11.98865 13.12293,-26.52448 l 13.12291,-26.42879 13.18855,26.32605 c 7.2537,14.47932 13.19509,26.41533 13.20312,26.52448 0.008,0.10914 -11.83214,0.19843 -26.31146,0.19843 -14.47932,0 -26.32605,-0.0431 -26.32605,-0.0957 z m 22.75417,-10.09077 v -4.36562 h 3.16255 c 1.73941,0 3.44614,0.12921 3.79274,0.28713 1.07254,0.48868 1.54234,1.68083 1.94293,4.93034 0.20744,1.68264 0.44035,3.1616 0.51759,3.28656 0.21008,0.33993 5.13628,0.28741 5.13628,-0.0548 0,-0.15509 -0.12381,-0.51332 -0.27514,-0.79607 -0.15132,-0.28275 -0.39023,-1.8257 -0.53091,-3.42878 -0.29102,-3.31641 -0.92701,-5.02623 -2.13497,-5.7398 -0.41973,-0.24794 -0.75856,-0.51442 -0.75296,-0.59219 0.006,-0.0778 0.39105,-0.38098 0.85654,-0.67382 1.4181,-0.89213 2.15865,-2.56991 2.16799,-4.91178 0.007,-1.777 -0.0829,-2.15176 -0.79276,-3.3003 -0.49618,-0.80286 -1.29308,-1.60023 -2.09517,-2.09641 l -1.29443,-0.80075 -7.36368,-0.0779 -7.36368,-0.0779 v 11.38887 11.38887 h 2.51354 2.51354 z m 0,-11.37708 v -3.04271 h 3.1835 c 4.68885,0 5.54775,0.49201 5.54775,3.17796 0,1.15112 -0.1191,1.47977 -0.77339,2.13406 l -0.7734,0.7734 h -3.59223 -3.59223 z"
       id="path1817" /></g></svg>
