<?xml version="1.0" encoding="UTF-8" standalone="no"?>
<!-- Created with Inkscape (http://www.inkscape.org/) -->

<svg
   width="55.618042mm"
   height="55.573608mm"
   viewBox="0 0 55.618042 55.573608"
   version="1.1"
   id="svg5"
   xml:space="preserve"
   inkscape:version="1.2 (dc2aeda, 2022-05-15)"
   sodipodi:docname="monuments_special.svg"
   xmlns:inkscape="http://www.inkscape.org/namespaces/inkscape"
   xmlns:sodipodi="http://sodipodi.sourceforge.net/DTD/sodipodi-0.dtd"
   xmlns="http://www.w3.org/2000/svg"
   xmlns:svg="http://www.w3.org/2000/svg"><sodipodi:namedview
     id="namedview7"
     pagecolor="#ffffff"
     bordercolor="#000000"
     borderopacity="0.25"
     inkscape:showpageshadow="2"
     inkscape:pageopacity="0.0"
     inkscape:pagecheckerboard="0"
     inkscape:deskcolor="#d1d1d1"
     inkscape:document-units="mm"
     showgrid="false"
     inkscape:zoom="0.37511246"
     inkscape:cx="1464.894"
     inkscape:cy="313.2394"
     inkscape:window-width="3440"
     inkscape:window-height="1323"
     inkscape:window-x="1512"
     inkscape:window-y="25"
     inkscape:window-maximized="1"
     inkscape:current-layer="layer1" /><defs
     id="defs2" /><g
     inkscape:label="Layer 1"
     inkscape:groupmode="layer"
     id="layer1"
     transform="translate(277.9799,-329.85177)"><g
       id="g7577"
       transform="translate(-337.6635,154.20462)"
       inkscape:export-filename="../../Pictures/icons/rune_stone_special.svg"
       inkscape:export-xdpi="91.337212"
       inkscape:export-ydpi="91.337212"><path
         style="fill:#f09937;fill-opacity:1;stroke:none;stroke-width:0.314223;stroke-opacity:1"
         d="m 73.54419,203.49065 c 7.62333,-15.25156 13.90782,-27.78107 13.96555,-27.84335 0.10222,-0.11027 27.79192,55.10158 27.79192,55.41566 0,0.0867 -12.51407,0.15781 -27.80905,0.15781 H 59.68359 Z"
         id="path4974-8-7-5-4" /><path
         style="fill:#000000;stroke-width:0.243744"
         d="m 76.637249,205.60075 c 5.97333,-11.94606 10.895101,-21.68059 10.937269,-21.63228 0.04217,0.0483 4.908304,9.82236 10.813636,21.72012 l 10.736966,21.63228 H 87.450884 65.776648 Z m 7.176996,14.16405 v -4.14364 l 2.620248,0.0137 c 4.289938,0.0225 5.059596,0.55596 5.474441,3.79423 0.135281,1.056 0.351421,2.49584 0.48031,3.19966 l 0.234348,1.27965 h 2.298286 c 1.264057,0 2.298287,-0.062 2.298287,-0.13789 0,-0.0758 -0.112883,-0.34882 -0.250849,-0.60662 -0.137969,-0.25779 -0.365721,-1.699 -0.506118,-3.20267 -0.293226,-3.14053 -0.874424,-4.65329 -2.100544,-5.46736 l -0.785689,-0.52165 0.951796,-0.65959 c 2.580793,-1.78849 2.761407,-6.44444 0.337222,-8.6931 -1.632127,-1.51396 -1.80169,-1.54446 -9.04085,-1.62649 l -6.642024,-0.0753 v 10.49532 10.49532 h 2.315568 2.315568 z m 0,-10.23724 v -2.92493 l 3.107736,0.004 c 1.990484,0.002 3.326806,0.11306 3.717096,0.30807 0.890748,0.44508 1.515183,1.80235 1.347351,2.92859 -0.314769,2.11227 -1.338974,2.60961 -5.37406,2.60961 h -2.798123 z"
         id="path7573" /></g></g></svg>
