<?xml version="1.0" encoding="UTF-8" standalone="no"?>
<!-- Created with Inkscape (http://www.inkscape.org/) -->

<svg
   width="58.748581mm"
   height="56.195679mm"
   viewBox="0 0 58.748581 56.195679"
   version="1.1"
   id="svg5"
   xml:space="preserve"
   inkscape:version="1.2 (dc2aeda, 2022-05-15)"
   sodipodi:docname="monuments_special.svg"
   xmlns:inkscape="http://www.inkscape.org/namespaces/inkscape"
   xmlns:sodipodi="http://sodipodi.sourceforge.net/DTD/sodipodi-0.dtd"
   xmlns="http://www.w3.org/2000/svg"
   xmlns:svg="http://www.w3.org/2000/svg"><sodipodi:namedview
     id="namedview7"
     pagecolor="#ffffff"
     bordercolor="#000000"
     borderopacity="0.25"
     inkscape:showpageshadow="2"
     inkscape:pageopacity="0.0"
     inkscape:pagecheckerboard="0"
     inkscape:deskcolor="#d1d1d1"
     inkscape:document-units="mm"
     showgrid="false"
     inkscape:zoom="0.37511246"
     inkscape:cx="1464.894"
     inkscape:cy="313.2394"
     inkscape:window-width="3440"
     inkscape:window-height="1323"
     inkscape:window-x="1512"
     inkscape:window-y="25"
     inkscape:window-maximized="1"
     inkscape:current-layer="layer1" /><defs
     id="defs2" /><g
     inkscape:label="Layer 1"
     inkscape:groupmode="layer"
     id="layer1"
     transform="translate(278.63859,-191.04377)"><g
       id="g377"
       transform="translate(-345.59686,-112.5545)"><path
         style="fill:#f09937;fill-opacity:1;stroke-width:0.30642"
         d="m 72.523751,342.53593 c -3.06494,-9.49187 -5.5694,-17.38708 -5.56548,-17.54491 0.0137,-0.54972 29.37859,-21.63803 29.78584,-21.39059 0.80961,0.49191 28.595989,20.71279 28.930229,21.05329 0.26353,0.26846 -1.03757,4.64158 -5.25702,17.66949 l -5.60723,17.31273 -18.356869,0.079 -18.35686,0.079 z"
         id="path9591-6" /><path
         style="fill:#000000;stroke-width:0.264583"
         d="m 75.774451,341.05595 c -2.64646,-8.19591 -4.80899,-15.01315 -4.80559,-15.14944 0.0118,-0.47467 25.36741,-18.68372 25.71906,-18.47006 0.69907,0.42475 24.691679,17.8848 24.980279,18.17881 0.22755,0.23181 -0.8959,4.00785 -4.53926,15.25701 l -4.84165,14.94896 -15.850539,0.0682 -15.85054,0.0682 z"
         id="path9591" /></g></g></svg>
